<svg width="97" height="128" viewBox="0 0 97 128" fill="none" xmlns="http://www.w3.org/2000/svg">
<path d="M29.4818 35.8329V47.9761C29.4818 49.063 30.3624 49.9443 31.4493 49.9453L94.2786 49.9986C95.3655 49.9995 96.2461 50.8809 96.2461 51.9678V126.031C96.2461 127.118 95.3644 128 94.2769 128H1.96923C0.881655 128 0 127.118 0 126.031V83.0438C0 81.9563 0.881655 81.0746 1.96923 81.0746H15.2873C16.3749 81.0746 17.2566 81.9563 17.2566 83.0438V108.777C17.2566 109.865 18.1382 110.746 19.2258 110.746H77.0188C78.1064 110.746 78.988 109.865 78.988 108.777V69.202C78.988 68.1151 78.1074 67.2337 77.0205 67.2327L14.1889 67.1795C13.1012 67.1785 12.2202 66.2958 12.2214 65.2081L12.2282 35.8329C12.2282 16.6169 28.8451 0 48.0611 0C75.9468 0 83.8969 19.8979 83.8939 31.8161V33.7687C83.8939 34.8562 83.0123 35.7379 81.9247 35.7379H68.6036C67.516 35.7379 66.6344 34.8562 66.6344 33.7687V31.8161C66.6344 24.9937 63.7068 17.2566 48.0581 17.2566C37.2742 17.2566 29.4818 25.046 29.4818 35.8329Z" fill="black"/>
<path d="M57.1077 88.6154C57.1077 93.5095 53.1402 97.4769 48.2462 97.4769C43.3521 97.4769 39.3846 93.5095 39.3846 88.6154C39.3846 83.7213 43.3521 79.7538 48.2462 79.7538C53.1402 79.7538 57.1077 83.7213 57.1077 88.6154Z" fill="black"/>
</svg>
