<svg width="374" height="500" viewBox="0 0 374 500" fill="none" xmlns="http://www.w3.org/2000/svg">
<path d="M137.226 190.97V135.671C137.226 100.001 164.766 70.8311 197.89 72.6972C228.257 74.4093 252.452 101.514 252.452 134.59C252.452 137.763 253.624 140.807 255.711 143.051C257.797 145.295 260.626 146.556 263.576 146.556H310.32C311.587 146.556 312.841 146.287 314.011 145.766C315.181 145.245 316.244 144.481 317.14 143.517C318.035 142.554 318.746 141.41 319.23 140.152C319.715 138.893 319.964 137.544 319.964 136.182C319.964 60.6484 262.805 -1.31908 192.599 0.0213451C124.643 1.31671 69.7353 61.1853 69.7353 134.59V237.093L69.7109 263.488C69.7081 266.662 70.8773 269.707 72.9614 271.954C75.0455 274.201 77.8738 275.465 80.8244 275.469L294.439 275.653C297.386 275.655 300.212 276.915 302.296 279.157C304.381 281.398 305.553 284.438 305.556 287.608V415.414C305.556 418.588 304.384 421.632 302.298 423.876C300.212 426.12 297.382 427.38 294.432 427.38H78.6289C75.6793 427.379 72.8508 426.118 70.7654 423.874C68.68 421.63 67.5084 418.587 67.5084 415.414V347.736C67.5089 346.164 67.2215 344.608 66.6627 343.155C66.1038 341.703 65.2845 340.384 64.2515 339.272C63.2185 338.161 61.9921 337.279 60.6422 336.677C59.2924 336.076 57.8455 335.766 56.3844 335.766H11.1275C8.1763 335.766 5.34598 337.027 3.25917 339.272C1.17236 341.517 0 344.561 0 347.736V488.034C-7.19269e-08 489.606 0.287845 491.162 0.847096 492.614C1.40635 494.066 2.22605 495.385 3.25938 496.497C4.29271 497.608 5.51942 498.489 6.86945 499.09C8.21948 499.691 9.66638 500 11.1275 500H361.947C364.898 500 367.727 498.739 369.813 496.495C371.899 494.251 373.071 491.207 373.071 488.034V215.09C373.071 211.918 371.901 208.876 369.817 206.633C367.733 204.389 364.906 203.127 361.958 203.124L148.343 202.936C145.394 202.934 142.567 201.673 140.482 199.429C138.397 197.185 137.226 194.142 137.226 190.97V190.97Z" fill="black"/>
<path d="M137.226 190.97V135.671C137.226 100.001 164.766 70.8311 197.89 72.6972C228.257 74.4093 252.452 101.514 252.452 134.59C252.452 137.763 253.624 140.807 255.711 143.051C257.797 145.295 260.626 146.556 263.576 146.556H310.32C311.587 146.556 312.841 146.287 314.011 145.766C315.181 145.245 316.244 144.481 317.14 143.517C318.035 142.554 318.746 141.41 319.23 140.152C319.715 138.893 319.964 137.544 319.964 136.182C319.964 60.6484 262.805 -1.31908 192.599 0.0213451C124.643 1.31671 69.7353 61.1853 69.7353 134.59V237.093L69.7109 263.488C69.7081 266.662 70.8773 269.707 72.9614 271.954C75.0455 274.201 77.8738 275.465 80.8244 275.469L294.439 275.653C297.386 275.655 300.212 276.915 302.296 279.157C304.381 281.398 305.553 284.438 305.556 287.608V415.414C305.556 418.588 304.384 421.632 302.298 423.876C300.212 426.12 297.382 427.38 294.432 427.38H78.6289C75.6793 427.379 72.8508 426.118 70.7654 423.874C68.68 421.63 67.5084 418.587 67.5084 415.414V347.736C67.5089 346.164 67.2215 344.608 66.6627 343.155C66.1038 341.703 65.2845 340.384 64.2515 339.272C63.2185 338.161 61.9921 337.279 60.6422 336.677C59.2924 336.076 57.8455 335.766 56.3844 335.766H11.1275C8.1763 335.766 5.34598 337.027 3.25917 339.272C1.17236 341.517 0 344.561 0 347.736V488.034C-7.19269e-08 489.606 0.287845 491.162 0.847096 492.614C1.40635 494.066 2.22605 495.385 3.25938 496.497C4.29271 497.608 5.51942 498.489 6.86945 499.09C8.21948 499.691 9.66638 500 11.1275 500H361.947C364.898 500 367.727 498.739 369.813 496.495C371.899 494.251 373.071 491.207 373.071 488.034V215.09C373.071 211.918 371.901 208.876 369.817 206.633C367.733 204.389 364.906 203.127 361.958 203.124L148.343 202.936C145.394 202.934 142.567 201.673 140.482 199.429C138.397 197.185 137.226 194.142 137.226 190.97V190.97Z" fill="black"/>
<path d="M203.871 371.291C214.007 361.155 214.007 344.721 203.871 334.585C193.735 324.449 177.301 324.449 167.165 334.585C157.029 344.721 157.029 361.155 167.165 371.291C177.301 381.427 193.735 381.427 203.871 371.291Z" fill="black"/>
<path d="M185.516 386.866C177.665 386.86 170.059 384.133 163.994 379.148C157.929 374.164 153.779 367.23 152.253 359.529C150.726 351.828 151.917 343.837 155.623 336.915C159.328 329.994 165.318 324.571 172.573 321.572C179.828 318.572 187.899 318.18 195.41 320.464C202.921 322.747 209.409 327.564 213.767 334.094C218.124 340.624 220.083 348.463 219.31 356.276C218.536 364.088 215.078 371.391 209.523 376.939C206.373 380.094 202.63 382.595 198.51 384.298C194.39 386.002 189.974 386.875 185.516 386.866ZM185.516 334.976C181.362 334.975 177.337 336.413 174.125 339.046C170.914 341.68 168.714 345.345 167.901 349.418C167.088 353.491 167.713 357.719 169.668 361.384C171.623 365.048 174.788 367.921 178.624 369.514C182.459 371.106 186.729 371.32 190.704 370.118C194.68 368.916 198.116 366.374 200.427 362.923C202.738 359.472 203.782 355.327 203.38 351.193C202.978 347.06 201.155 343.193 198.222 340.252C196.556 338.58 194.576 337.253 192.395 336.349C190.214 335.445 187.876 334.981 185.516 334.983V334.976Z" fill="black"/>
</svg>
